fd_10_states
version=1
nRows=43
nColumns=17
inDegrees=yes

# SIMM Motion File Header:
name fd_10_states
datacolumns 17
datarows 43
otherdata 1
range 0.160020 0.190075
endheader
time	/jointset/r_shoulder/r_shoulder_elev/value	/jointset/r_shoulder/r_shoulder_elev/speed	/jointset/r_elbow/r_elbow_flex/value	/jointset/r_elbow/r_elbow_flex/speed	/forceset/TRIlong/activation	/forceset/TRIlong/fiber_length	/forceset/TRIlat/activation	/forceset/TRIlat/fiber_length	/forceset/TRImed/activation	/forceset/TRImed/fiber_length	/forceset/BIClong/activation	/forceset/BIClong/fiber_length	/forceset/BICshort/activation	/forceset/BICshort/fiber_length	/forceset/BRA/activation	/forceset/BRA/fiber_length
      0.160020	      0.093675	     -1.259339	     27.473455	    300.408914	      0.192423	      0.145665	      0.245359	      0.079802	      0.232575	      0.074968	      0.665343	      0.137616	      0.540703	      0.136990	      0.429644	      0.086078
      0.160074	      0.093607	     -1.255625	     27.489644	    300.359919	      0.192240	      0.145672	      0.245285	      0.079808	      0.232498	      0.074975	      0.666544	      0.137612	      0.542586	      0.136986	      0.429013	      0.086075
      0.160344	      0.093272	     -1.224656	     27.570545	    300.079052	      0.191329	      0.145709	      0.244918	      0.079841	      0.232116	      0.075007	      0.672465	      0.137591	      0.551823	      0.136963	      0.425881	      0.086059
      0.161245	      0.092255	     -1.008037	     27.840557	    298.818765	      0.188325	      0.145833	      0.243706	      0.079953	      0.230857	      0.075119	      0.691292	      0.137513	      0.580783	      0.136875	      0.415664	      0.086007
      0.162147	      0.091488	     -0.678958	     28.109283	    297.257496	      0.185391	      0.145957	      0.242519	      0.080065	      0.229624	      0.075231	      0.708735	      0.137425	      0.607091	      0.136768	      0.405834	      0.085956
      0.163709	      0.090952	      0.003079	     28.571276	    294.332813	      0.180465	      0.146169	      0.240523	      0.080259	      0.227548	      0.075424	      0.736085	      0.137249	      0.647439	      0.136553	      0.389664	      0.085866
      0.165942	      0.092020	      0.916142	     29.224178	    290.667307	      0.173751	      0.146470	      0.237795	      0.080533	      0.224710	      0.075697	      0.769869	      0.136961	      0.695947	      0.136201	      0.368266	      0.085739
      0.167352	      0.093617	      1.319012	     29.633047	    289.110150	      0.169698	      0.146659	      0.236144	      0.080704	      0.222991	      0.075867	      0.788522	      0.136763	      0.722174	      0.135965	      0.355689	      0.085659
      0.169078	      0.096139	      1.552453	     30.130997	    288.261019	      0.164926	      0.146889	      0.234197	      0.080912	      0.220962	      0.076075	      0.808952	      0.136507	      0.750495	      0.135670	      0.341203	      0.085562
      0.169562	      0.096893	      1.560871	     30.270594	    288.251138	      0.163622	      0.146953	      0.233665	      0.080970	      0.220407	      0.076133	      0.814264	      0.136434	      0.757794	      0.135587	      0.337304	      0.085535
      0.169758	      0.097198	      1.557052	     30.326943	    288.276055	      0.163100	      0.146979	      0.233451	      0.080993	      0.220185	      0.076156	      0.816359	      0.136404	      0.760666	      0.135553	      0.335750	      0.085524
      0.169876	      0.097382	      1.552708	     30.361069	    288.299276	      0.162785	      0.146994	      0.233323	      0.081008	      0.220051	      0.076170	      0.817615	      0.136386	      0.762384	      0.135533	      0.334814	      0.085518
      0.169966	      0.097521	      1.548406	     30.386870	    288.320911	      0.162548	      0.147006	      0.233226	      0.081018	      0.219950	      0.076181	      0.818558	      0.136372	      0.763674	      0.135517	      0.334109	      0.085513
      0.169996	      0.097568	      1.546733	     30.395691	    288.329113	      0.162467	      0.147010	      0.233192	      0.081022	      0.219915	      0.076185	      0.818879	      0.136367	      0.764113	      0.135512	      0.333869	      0.085511
      0.170007	      0.097585	      1.546130	     30.398737	    288.332045	      0.162439	      0.147012	      0.233175	      0.081023	      0.219898	      0.076186	      0.818848	      0.136366	      0.764119	      0.135510	      0.333786	      0.085510
      0.170017	      0.097601	      1.545507	     30.401784	    288.335040	      0.162411	      0.147013	      0.233143	      0.081025	      0.219867	      0.076187	      0.818495	      0.136364	      0.763806	      0.135508	      0.333703	      0.085510
      0.170032	      0.097624	      1.544619	     30.405966	    288.339259	      0.162373	      0.147015	      0.233099	      0.081026	      0.219823	      0.076189	      0.817995	      0.136362	      0.763363	      0.135506	      0.333589	      0.085509
      0.170104	      0.097735	      1.539600	     30.426879	    288.362196	      0.162181	      0.147025	      0.232876	      0.081035	      0.219605	      0.076198	      0.815503	      0.136351	      0.761151	      0.135493	      0.333021	      0.085505
      0.170467	      0.098287	      1.500071	     30.531474	    288.522654	      0.161227	      0.147073	      0.231767	      0.081079	      0.218519	      0.076242	      0.803237	      0.136297	      0.750256	      0.135433	      0.330203	      0.085485
      0.171609	      0.099867	      1.234724	     30.861317	    289.465628	      0.158277	      0.147224	      0.228345	      0.081221	      0.215168	      0.076383	      0.766634	      0.136142	      0.717649	      0.135262	      0.321572	      0.085421
      0.172750	      0.101052	      0.823648	     31.192515	    290.843843	      0.155406	      0.147375	      0.225025	      0.081364	      0.211915	      0.076525	      0.732814	      0.136004	      0.687394	      0.135112	      0.313287	      0.085357
      0.174931	      0.101859	     -0.086065	     31.829960	    293.751652	      0.150129	      0.147664	      0.218949	      0.081639	      0.205957	      0.076798	      0.674884	      0.135778	      0.635286	      0.134863	      0.298354	      0.085233
      0.176310	      0.101378	     -0.593747	     32.236118	    295.268923	      0.146927	      0.147847	      0.215279	      0.081813	      0.202355	      0.076972	      0.642150	      0.135651	      0.605681	      0.134722	      0.289471	      0.085155
      0.177519	      0.100443	     -0.934949	     32.593798	    296.185843	      0.144200	      0.148008	      0.212165	      0.081967	      0.199296	      0.077124	      0.615590	      0.135547	      0.581574	      0.134603	      0.282011	      0.085086
      0.178728	      0.099166	     -1.151709	     32.952309	    296.619301	      0.141546	      0.148168	      0.209143	      0.082120	      0.196327	      0.077277	      0.590827	      0.135448	      0.559028	      0.134488	      0.274842	      0.085017
      0.179395	      0.098378	     -1.205627	     33.150078	    296.610292	      0.140114	      0.148256	      0.207516	      0.082205	      0.194727	      0.077361	      0.577880	      0.135394	      0.547214	      0.134425	      0.271008	      0.084978
      0.179655	      0.098064	     -1.213403	     33.227007	    296.556871	      0.139562	      0.148291	      0.206890	      0.082238	      0.194112	      0.077394	      0.572970	      0.135374	      0.542729	      0.134401	      0.269539	      0.084963
      0.180001	      0.097644	     -1.212055	     33.329703	    296.441117	      0.138831	      0.148336	      0.206054	      0.082282	      0.193291	      0.077438	      0.566689	      0.135346	      0.536835	      0.134368	      0.267595	      0.084943
      0.180023	      0.097616	     -1.211493	     33.336352	    296.431839	      0.138784	      0.148339	      0.205976	      0.082285	      0.193219	      0.077440	      0.567196	      0.135345	      0.536456	      0.134366	      0.267470	      0.084942
      0.180052	      0.097582	     -1.210679	     33.344730	    296.419795	      0.138724	      0.148343	      0.205872	      0.082288	      0.193123	      0.077444	      0.568048	      0.135342	      0.535981	      0.134363	      0.267313	      0.084941
      0.180193	      0.097411	     -1.204925	     33.386615	    296.353941	      0.138428	      0.148362	      0.205353	      0.082306	      0.192647	      0.077462	      0.572271	      0.135331	      0.533612	      0.134350	      0.266527	      0.084932
      0.180899	      0.096580	     -1.140887	     33.595868	    295.905828	      0.136959	      0.148455	      0.202789	      0.082398	      0.190290	      0.077552	      0.592473	      0.135267	      0.522026	      0.134283	      0.262652	      0.084891
      0.181991	      0.095427	     -0.957304	     33.918221	    294.928415	      0.134735	      0.148599	      0.198924	      0.082539	      0.186735	      0.077692	      0.620966	      0.135150	      0.504931	      0.134180	      0.256835	      0.084828
      0.183398	      0.094301	     -0.631984	     34.332350	    293.377054	      0.131943	      0.148783	      0.194099	      0.082721	      0.182293	      0.077873	      0.653605	      0.134970	      0.484196	      0.134044	      0.249614	      0.084747
      0.185356	      0.093544	     -0.146856	     34.904501	    291.143715	      0.128199	      0.149038	      0.187677	      0.082972	      0.176372	      0.078121	      0.692702	      0.134679	      0.457588	      0.133852	      0.240072	      0.084633
      0.186816	      0.093564	      0.161518	     35.328382	    289.698545	      0.125507	      0.149227	      0.183095	      0.083158	      0.172142	      0.078305	      0.717962	      0.134441	      0.439261	      0.133707	      0.233312	      0.084549
      0.188275	      0.093969	      0.374216	     35.750403	    288.618303	      0.122898	      0.149415	      0.178680	      0.083343	      0.168061	      0.078487	      0.740471	      0.134191	      0.422091	      0.133559	      0.226834	      0.084465
      0.189735	      0.094600	      0.469216	     36.171168	    287.985234	      0.120367	      0.149602	      0.174423	      0.083526	      0.164122	      0.078669	      0.760623	      0.133932	      0.405975	      0.133410	      0.220623	      0.084382
      0.189919	      0.094686	      0.471465	     36.224253	    287.941802	      0.120053	      0.149625	      0.173896	      0.083550	      0.163635	      0.078692	      0.763018	      0.133899	      0.404010	      0.133391	      0.219857	      0.084371
      0.189994	      0.094721	      0.471780	     36.245633	    287.926561	      0.119926	      0.149635	      0.173684	      0.083559	      0.163439	      0.078701	      0.763973	      0.133886	      0.403223	      0.133383	      0.219549	      0.084367
      0.190012	      0.094730	      0.471804	     36.250845	    287.923045	      0.119896	      0.149637	      0.173632	      0.083561	      0.163391	      0.078703	      0.763950	      0.133883	      0.403046	      0.133381	      0.219489	      0.084366
      0.190030	      0.094738	      0.471806	     36.256056	    287.919610	      0.119865	      0.149639	      0.173579	      0.083563	      0.163343	      0.078705	      0.763490	      0.133879	      0.402900	      0.133379	      0.219462	      0.084365
      0.190075	      0.094760	      0.471716	     36.269022	    287.911415	      0.119789	      0.149645	      0.173448	      0.083569	      0.163223	      0.078711	      0.762343	      0.133871	      0.402538	      0.133375	      0.219394	      0.084362
